<mxfile host="app.diagrams.net" modified="2024-04-04T16:55:28.141Z" agent="Mozilla/5.0 (Windows NT 10.0; Win64; x64) AppleWebKit/537.36 (KHTML, like Gecko) Chrome/121.0.0.0 Safari/537.36 OPR/107.0.0.0" etag="uxzvduWed3izVU9kOGzt" version="24.2.1" type="device">
  <diagram name="Page-1" id="YuQySBLkSYOCfur5QAkv">
    <mxGraphModel dx="4486" dy="1670" grid="1" gridSize="10" guides="1" tooltips="1" connect="1" arrows="1" fold="1" page="1" pageScale="1" pageWidth="850" pageHeight="1100" math="0" shadow="0">
      <root>
        <mxCell id="0" />
        <mxCell id="1" parent="0" />
        <mxCell id="Jh-p6pg2kiHkw36diCdq-1" value="Login or signup options" style="rounded=0;whiteSpace=wrap;html=1;fillColor=#f8cecc;strokeColor=#b85450;" parent="1" vertex="1">
          <mxGeometry x="-95" y="200" width="120" height="50" as="geometry" />
        </mxCell>
        <mxCell id="Jh-p6pg2kiHkw36diCdq-3" value="" style="endArrow=none;html=1;rounded=0;exitX=0.5;exitY=1;exitDx=0;exitDy=0;endFill=0;" parent="1" source="Jh-p6pg2kiHkw36diCdq-1" edge="1">
          <mxGeometry width="50" height="50" relative="1" as="geometry">
            <mxPoint x="-50" y="320" as="sourcePoint" />
            <mxPoint x="-35" y="310" as="targetPoint" />
          </mxGeometry>
        </mxCell>
        <mxCell id="Y7EmNJ8xQKFl7zkMKFGG-2" value="Login page" style="rounded=0;whiteSpace=wrap;html=1;fillColor=#f8cecc;strokeColor=#b85450;" parent="1" vertex="1">
          <mxGeometry x="-925" y="350" width="120" height="50" as="geometry" />
        </mxCell>
        <mxCell id="Y7EmNJ8xQKFl7zkMKFGG-4" value="Signup page" style="rounded=0;whiteSpace=wrap;html=1;fillColor=#f8cecc;strokeColor=#b85450;" parent="1" vertex="1">
          <mxGeometry x="10" y="350" width="120" height="50" as="geometry" />
        </mxCell>
        <mxCell id="Y7EmNJ8xQKFl7zkMKFGG-5" value="" style="endArrow=none;html=1;rounded=0;endFill=0;" parent="1" edge="1">
          <mxGeometry width="50" height="50" relative="1" as="geometry">
            <mxPoint x="-865" y="310" as="sourcePoint" />
            <mxPoint x="-35" y="310" as="targetPoint" />
          </mxGeometry>
        </mxCell>
        <mxCell id="Y7EmNJ8xQKFl7zkMKFGG-6" value="" style="endArrow=classic;html=1;rounded=0;endFill=1;entryX=0.5;entryY=0;entryDx=0;entryDy=0;" parent="1" target="Y7EmNJ8xQKFl7zkMKFGG-2" edge="1">
          <mxGeometry width="50" height="50" relative="1" as="geometry">
            <mxPoint x="-865" y="310" as="sourcePoint" />
            <mxPoint x="-780" y="320" as="targetPoint" />
          </mxGeometry>
        </mxCell>
        <mxCell id="Y7EmNJ8xQKFl7zkMKFGG-7" value="" style="endArrow=classic;html=1;rounded=0;endFill=1;entryX=0.5;entryY=0;entryDx=0;entryDy=0;" parent="1" edge="1">
          <mxGeometry width="50" height="50" relative="1" as="geometry">
            <mxPoint x="69.75999999999999" y="310" as="sourcePoint" />
            <mxPoint x="69.75999999999999" y="350" as="targetPoint" />
          </mxGeometry>
        </mxCell>
        <mxCell id="Y7EmNJ8xQKFl7zkMKFGG-8" value="" style="endArrow=none;html=1;rounded=0;endFill=0;fontStyle=1" parent="1" edge="1">
          <mxGeometry width="50" height="50" relative="1" as="geometry">
            <mxPoint x="-35" y="310" as="sourcePoint" />
            <mxPoint x="70" y="310" as="targetPoint" />
          </mxGeometry>
        </mxCell>
        <mxCell id="Y7EmNJ8xQKFl7zkMKFGG-9" value="DB&lt;br&gt;(Bunch of text files)" style="shape=cylinder3;whiteSpace=wrap;html=1;boundedLbl=1;backgroundOutline=1;size=15;fillColor=#f8cecc;strokeColor=#b85450;" parent="1" vertex="1">
          <mxGeometry x="620" y="477.5" width="60" height="80" as="geometry" />
        </mxCell>
        <mxCell id="Y7EmNJ8xQKFl7zkMKFGG-10" value="DB records&lt;div&gt;(single file)&lt;/div&gt;" style="ellipse;whiteSpace=wrap;html=1;aspect=fixed;fillColor=#f8cecc;strokeColor=#b85450;" parent="1" vertex="1">
          <mxGeometry x="610" y="362.5" width="80" height="80" as="geometry" />
        </mxCell>
        <mxCell id="Y7EmNJ8xQKFl7zkMKFGG-11" value="" style="endArrow=none;html=1;rounded=0;endFill=0;fontStyle=1;exitX=0.5;exitY=0;exitDx=0;exitDy=0;exitPerimeter=0;entryX=0.5;entryY=1;entryDx=0;entryDy=0;" parent="1" source="Y7EmNJ8xQKFl7zkMKFGG-9" target="Y7EmNJ8xQKFl7zkMKFGG-10" edge="1">
          <mxGeometry width="50" height="50" relative="1" as="geometry">
            <mxPoint x="540" y="442.5" as="sourcePoint" />
            <mxPoint x="645" y="442.5" as="targetPoint" />
          </mxGeometry>
        </mxCell>
        <mxCell id="Y7EmNJ8xQKFl7zkMKFGG-20" value="" style="endArrow=classic;html=1;rounded=0;endFill=1;exitX=0.5;exitY=1;exitDx=0;exitDy=0;entryX=0.5;entryY=0;entryDx=0;entryDy=0;" parent="1" source="Y7EmNJ8xQKFl7zkMKFGG-4" edge="1">
          <mxGeometry width="50" height="50" relative="1" as="geometry">
            <mxPoint x="70" y="470" as="sourcePoint" />
            <mxPoint x="70" y="465" as="targetPoint" />
          </mxGeometry>
        </mxCell>
        <mxCell id="Y7EmNJ8xQKFl7zkMKFGG-22" value="Does username already exist?" style="rhombus;whiteSpace=wrap;html=1;fillColor=#f8cecc;strokeColor=#b85450;" parent="1" vertex="1">
          <mxGeometry x="-25" y="465" width="190" height="100" as="geometry" />
        </mxCell>
        <mxCell id="Y7EmNJ8xQKFl7zkMKFGG-24" value="" style="endArrow=classic;html=1;rounded=0;exitX=1;exitY=0.5;exitDx=0;exitDy=0;endFill=1;" parent="1" source="Y7EmNJ8xQKFl7zkMKFGG-22" edge="1">
          <mxGeometry width="50" height="50" relative="1" as="geometry">
            <mxPoint x="170" y="520" as="sourcePoint" />
            <mxPoint x="230" y="515" as="targetPoint" />
          </mxGeometry>
        </mxCell>
        <mxCell id="Y7EmNJ8xQKFl7zkMKFGG-26" value="Display error page" style="rounded=0;whiteSpace=wrap;html=1;fillColor=#f8cecc;strokeColor=#b85450;" parent="1" vertex="1">
          <mxGeometry x="230" y="490" width="120" height="50" as="geometry" />
        </mxCell>
        <mxCell id="Y7EmNJ8xQKFl7zkMKFGG-29" value="" style="endArrow=none;html=1;rounded=0;endFill=0;fontStyle=1;exitX=0.584;exitY=-0.005;exitDx=0;exitDy=0;exitPerimeter=0;" parent="1" source="Y7EmNJ8xQKFl7zkMKFGG-26" edge="1">
          <mxGeometry width="50" height="50" relative="1" as="geometry">
            <mxPoint x="190" y="440" as="sourcePoint" />
            <mxPoint x="300" y="370" as="targetPoint" />
          </mxGeometry>
        </mxCell>
        <mxCell id="Y7EmNJ8xQKFl7zkMKFGG-31" value="" style="endArrow=classic;html=1;rounded=0;endFill=1;entryX=1.005;entryY=0.41;entryDx=0;entryDy=0;entryPerimeter=0;" parent="1" target="Y7EmNJ8xQKFl7zkMKFGG-4" edge="1">
          <mxGeometry width="50" height="50" relative="1" as="geometry">
            <mxPoint x="300" y="370" as="sourcePoint" />
            <mxPoint x="165" y="395" as="targetPoint" />
          </mxGeometry>
        </mxCell>
        <mxCell id="Y7EmNJ8xQKFl7zkMKFGG-32" value="Yes" style="text;html=1;align=center;verticalAlign=middle;whiteSpace=wrap;rounded=0;" parent="1" vertex="1">
          <mxGeometry x="150" y="490" width="60" height="30" as="geometry" />
        </mxCell>
        <mxCell id="Y7EmNJ8xQKFl7zkMKFGG-33" value="No" style="text;html=1;align=center;verticalAlign=middle;whiteSpace=wrap;rounded=0;" parent="1" vertex="1">
          <mxGeometry x="-80" y="490" width="60" height="30" as="geometry" />
        </mxCell>
        <mxCell id="Y7EmNJ8xQKFl7zkMKFGG-34" value="" style="endArrow=classic;html=1;rounded=0;endFill=1;exitX=0;exitY=0.5;exitDx=0;exitDy=0;" parent="1" source="Y7EmNJ8xQKFl7zkMKFGG-22" edge="1">
          <mxGeometry width="50" height="50" relative="1" as="geometry">
            <mxPoint x="-30" y="520" as="sourcePoint" />
            <mxPoint x="-80" y="515" as="targetPoint" />
          </mxGeometry>
        </mxCell>
        <mxCell id="Y7EmNJ8xQKFl7zkMKFGG-37" value="Create user struct&amp;nbsp;" style="rounded=0;whiteSpace=wrap;html=1;fillColor=#f8cecc;strokeColor=#b85450;" parent="1" vertex="1">
          <mxGeometry x="-200" y="490" width="120" height="50" as="geometry" />
        </mxCell>
        <mxCell id="Y7EmNJ8xQKFl7zkMKFGG-38" value="" style="endArrow=classic;html=1;rounded=0;endFill=1;exitX=0.5;exitY=1;exitDx=0;exitDy=0;" parent="1" source="Y7EmNJ8xQKFl7zkMKFGG-37" edge="1">
          <mxGeometry width="50" height="50" relative="1" as="geometry">
            <mxPoint x="-125" y="565" as="sourcePoint" />
            <mxPoint x="-140" y="590" as="targetPoint" />
          </mxGeometry>
        </mxCell>
        <mxCell id="Y7EmNJ8xQKFl7zkMKFGG-39" value="Link to existing list of user structs" style="rounded=0;whiteSpace=wrap;html=1;fillColor=#f8cecc;strokeColor=#b85450;" parent="1" vertex="1">
          <mxGeometry x="-200" y="690" width="120" height="50" as="geometry" />
        </mxCell>
        <mxCell id="Y7EmNJ8xQKFl7zkMKFGG-40" value="" style="rounded=0;whiteSpace=wrap;html=1;dashed=1;dashPattern=1 1;fillColor=none;" parent="1" vertex="1">
          <mxGeometry x="590" y="360" width="120" height="205" as="geometry" />
        </mxCell>
        <mxCell id="Y7EmNJ8xQKFl7zkMKFGG-41" value="" style="rounded=0;whiteSpace=wrap;html=1;dashed=1;dashPattern=1 1;fillColor=none;" parent="1" vertex="1">
          <mxGeometry x="-120" y="180" width="170" height="90" as="geometry" />
        </mxCell>
        <mxCell id="Y7EmNJ8xQKFl7zkMKFGG-43" value="" style="rounded=0;whiteSpace=wrap;html=1;dashed=1;dashPattern=1 1;fillColor=none;fontStyle=1" parent="1" vertex="1">
          <mxGeometry x="-220" y="465" width="155" height="295" as="geometry" />
        </mxCell>
        <mxCell id="Y7EmNJ8xQKFl7zkMKFGG-45" value="Parse DB and create linked list of users" style="rounded=0;whiteSpace=wrap;html=1;fillColor=#f8cecc;strokeColor=#b85450;" parent="1" vertex="1">
          <mxGeometry x="-95" y="70" width="120" height="50" as="geometry" />
        </mxCell>
        <mxCell id="Y7EmNJ8xQKFl7zkMKFGG-46" value="" style="endArrow=classic;html=1;rounded=0;endFill=1;" parent="1" target="Y7EmNJ8xQKFl7zkMKFGG-41" edge="1">
          <mxGeometry width="50" height="50" relative="1" as="geometry">
            <mxPoint x="-35.24000000000001" y="120" as="sourcePoint" />
            <mxPoint x="-35.24000000000001" y="160" as="targetPoint" />
          </mxGeometry>
        </mxCell>
        <mxCell id="Y7EmNJ8xQKFl7zkMKFGG-47" value="" style="rounded=0;whiteSpace=wrap;html=1;dashed=1;dashPattern=1 1;fillColor=none;" parent="1" vertex="1">
          <mxGeometry x="-120" y="50" width="170" height="90" as="geometry" />
        </mxCell>
        <mxCell id="Y7EmNJ8xQKFl7zkMKFGG-49" value="Save new user to DB records and DB" style="rounded=0;whiteSpace=wrap;html=1;fillColor=#f8cecc;strokeColor=#b85450;" parent="1" vertex="1">
          <mxGeometry x="-200" y="590" width="120" height="50" as="geometry" />
        </mxCell>
        <mxCell id="Y7EmNJ8xQKFl7zkMKFGG-50" value="" style="endArrow=classic;html=1;rounded=0;endFill=1;exitX=0.5;exitY=1;exitDx=0;exitDy=0;" parent="1" edge="1">
          <mxGeometry width="50" height="50" relative="1" as="geometry">
            <mxPoint x="-140.29" y="640" as="sourcePoint" />
            <mxPoint x="-140.29" y="690" as="targetPoint" />
          </mxGeometry>
        </mxCell>
        <mxCell id="Y7EmNJ8xQKFl7zkMKFGG-51" value="" style="rounded=0;whiteSpace=wrap;html=1;dashed=1;dashPattern=1 1;fillColor=none;fontStyle=1" parent="1" vertex="1">
          <mxGeometry x="-212.5" y="580" width="140" height="70" as="geometry" />
        </mxCell>
        <mxCell id="Y7EmNJ8xQKFl7zkMKFGG-52" value="" style="endArrow=none;html=1;rounded=0;exitX=1;exitY=0.5;exitDx=0;exitDy=0;" parent="1" source="Y7EmNJ8xQKFl7zkMKFGG-39" edge="1">
          <mxGeometry width="50" height="50" relative="1" as="geometry">
            <mxPoint x="-50" y="740" as="sourcePoint" />
            <mxPoint x="640" y="710" as="targetPoint" />
          </mxGeometry>
        </mxCell>
        <mxCell id="Y7EmNJ8xQKFl7zkMKFGG-53" value="" style="endArrow=classic;html=1;rounded=0;entryX=0.411;entryY=1.007;entryDx=0;entryDy=0;entryPerimeter=0;" parent="1" target="Y7EmNJ8xQKFl7zkMKFGG-40" edge="1">
          <mxGeometry width="50" height="50" relative="1" as="geometry">
            <mxPoint x="640" y="710" as="sourcePoint" />
            <mxPoint x="690" y="660" as="targetPoint" />
          </mxGeometry>
        </mxCell>
        <mxCell id="Y7EmNJ8xQKFl7zkMKFGG-54" value="" style="endArrow=none;html=1;rounded=0;exitX=0.5;exitY=0;exitDx=0;exitDy=0;" parent="1" source="Y7EmNJ8xQKFl7zkMKFGG-40" edge="1">
          <mxGeometry width="50" height="50" relative="1" as="geometry">
            <mxPoint x="640" y="360" as="sourcePoint" />
            <mxPoint x="650" y="120" as="targetPoint" />
          </mxGeometry>
        </mxCell>
        <mxCell id="Y7EmNJ8xQKFl7zkMKFGG-55" value="" style="endArrow=classic;html=1;rounded=0;entryX=0.998;entryY=0.804;entryDx=0;entryDy=0;entryPerimeter=0;" parent="1" target="Y7EmNJ8xQKFl7zkMKFGG-47" edge="1">
          <mxGeometry width="50" height="50" relative="1" as="geometry">
            <mxPoint x="650" y="120" as="sourcePoint" />
            <mxPoint x="640" y="90" as="targetPoint" />
          </mxGeometry>
        </mxCell>
        <mxCell id="Y7EmNJ8xQKFl7zkMKFGG-56" value="" style="rounded=0;whiteSpace=wrap;html=1;dashed=1;dashPattern=1 1;fillColor=none;fontStyle=1" parent="1" vertex="1">
          <mxGeometry x="-30" y="340" width="410" height="260" as="geometry" />
        </mxCell>
        <mxCell id="lDFdH67llvzf7UMU7Doh-1" value="Is there a username match&lt;div&gt;in the DB?&lt;/div&gt;" style="rhombus;whiteSpace=wrap;html=1;fillColor=#f8cecc;strokeColor=#b85450;" vertex="1" parent="1">
          <mxGeometry x="-960" y="440" width="190" height="100" as="geometry" />
        </mxCell>
        <mxCell id="lDFdH67llvzf7UMU7Doh-2" value="" style="endArrow=classic;html=1;rounded=0;endFill=1;entryX=0.5;entryY=0;entryDx=0;entryDy=0;" edge="1" parent="1">
          <mxGeometry width="50" height="50" relative="1" as="geometry">
            <mxPoint x="-865.34" y="400" as="sourcePoint" />
            <mxPoint x="-865" y="440.0000000000001" as="targetPoint" />
          </mxGeometry>
        </mxCell>
        <mxCell id="lDFdH67llvzf7UMU7Doh-6" value="" style="endArrow=classic;html=1;rounded=0;exitX=1;exitY=0.5;exitDx=0;exitDy=0;endFill=1;" edge="1" parent="1">
          <mxGeometry width="50" height="50" relative="1" as="geometry">
            <mxPoint x="-770" y="490" as="sourcePoint" />
            <mxPoint x="-705" y="490" as="targetPoint" />
          </mxGeometry>
        </mxCell>
        <mxCell id="lDFdH67llvzf7UMU7Doh-7" value="Yes" style="text;html=1;align=center;verticalAlign=middle;whiteSpace=wrap;rounded=0;" vertex="1" parent="1">
          <mxGeometry x="-785" y="465" width="60" height="30" as="geometry" />
        </mxCell>
        <mxCell id="lDFdH67llvzf7UMU7Doh-9" value="Is the password a match?" style="rhombus;whiteSpace=wrap;html=1;fillColor=#f8cecc;strokeColor=#b85450;" vertex="1" parent="1">
          <mxGeometry x="-705" y="440" width="190" height="100" as="geometry" />
        </mxCell>
        <mxCell id="lDFdH67llvzf7UMU7Doh-10" value="" style="endArrow=classic;html=1;rounded=0;exitX=1;exitY=0.5;exitDx=0;exitDy=0;endFill=1;" edge="1" parent="1">
          <mxGeometry width="50" height="50" relative="1" as="geometry">
            <mxPoint x="-515" y="490" as="sourcePoint" />
            <mxPoint x="-450" y="490" as="targetPoint" />
          </mxGeometry>
        </mxCell>
        <mxCell id="lDFdH67llvzf7UMU7Doh-11" value="Yes" style="text;html=1;align=center;verticalAlign=middle;whiteSpace=wrap;rounded=0;" vertex="1" parent="1">
          <mxGeometry x="-530" y="465" width="60" height="30" as="geometry" />
        </mxCell>
        <mxCell id="lDFdH67llvzf7UMU7Doh-12" value="Return corresponding user struct" style="rounded=0;whiteSpace=wrap;html=1;fillColor=#f8cecc;strokeColor=#b85450;" vertex="1" parent="1">
          <mxGeometry x="-450" y="465" width="120" height="50" as="geometry" />
        </mxCell>
        <mxCell id="lDFdH67llvzf7UMU7Doh-13" value="No" style="text;html=1;align=center;verticalAlign=middle;whiteSpace=wrap;rounded=0;" vertex="1" parent="1">
          <mxGeometry x="-1016" y="465" width="60" height="30" as="geometry" />
        </mxCell>
        <mxCell id="lDFdH67llvzf7UMU7Doh-14" value="" style="endArrow=classic;html=1;rounded=0;endFill=1;exitX=0;exitY=0.5;exitDx=0;exitDy=0;" edge="1" parent="1">
          <mxGeometry width="50" height="50" relative="1" as="geometry">
            <mxPoint x="-961" y="490" as="sourcePoint" />
            <mxPoint x="-1016" y="490" as="targetPoint" />
          </mxGeometry>
        </mxCell>
        <mxCell id="lDFdH67llvzf7UMU7Doh-15" value="&quot;Account does not exist&quot;" style="rounded=0;whiteSpace=wrap;html=1;fillColor=#f8cecc;strokeColor=#b85450;" vertex="1" parent="1">
          <mxGeometry x="-1136" y="465" width="120" height="50" as="geometry" />
        </mxCell>
        <mxCell id="lDFdH67llvzf7UMU7Doh-16" value="No" style="text;html=1;align=center;verticalAlign=middle;whiteSpace=wrap;rounded=0;" vertex="1" parent="1">
          <mxGeometry x="-660" y="540" width="60" height="30" as="geometry" />
        </mxCell>
        <mxCell id="lDFdH67llvzf7UMU7Doh-17" value="" style="endArrow=classic;html=1;rounded=0;endFill=1;exitX=0.5;exitY=1;exitDx=0;exitDy=0;entryX=0.5;entryY=0;entryDx=0;entryDy=0;" edge="1" parent="1" source="lDFdH67llvzf7UMU7Doh-9" target="lDFdH67llvzf7UMU7Doh-18">
          <mxGeometry width="50" height="50" relative="1" as="geometry">
            <mxPoint x="-585" y="557.5" as="sourcePoint" />
            <mxPoint x="-610" y="570" as="targetPoint" />
          </mxGeometry>
        </mxCell>
        <mxCell id="lDFdH67llvzf7UMU7Doh-18" value="&quot;Wrong password&quot;" style="rounded=0;whiteSpace=wrap;html=1;fillColor=#f8cecc;strokeColor=#b85450;" vertex="1" parent="1">
          <mxGeometry x="-670" y="580" width="120" height="50" as="geometry" />
        </mxCell>
        <mxCell id="lDFdH67llvzf7UMU7Doh-19" value="" style="endArrow=none;html=1;rounded=0;endFill=0;exitX=0;exitY=0.5;exitDx=0;exitDy=0;" edge="1" parent="1">
          <mxGeometry width="50" height="50" relative="1" as="geometry">
            <mxPoint x="-670" y="604.72" as="sourcePoint" />
            <mxPoint x="-1160" y="604" as="targetPoint" />
          </mxGeometry>
        </mxCell>
        <mxCell id="lDFdH67llvzf7UMU7Doh-20" value="" style="endArrow=none;html=1;rounded=0;endFill=0;exitX=0;exitY=0.5;exitDx=0;exitDy=0;" edge="1" parent="1">
          <mxGeometry width="50" height="50" relative="1" as="geometry">
            <mxPoint x="-1160" y="604" as="sourcePoint" />
            <mxPoint x="-1160" y="375" as="targetPoint" />
          </mxGeometry>
        </mxCell>
        <mxCell id="lDFdH67llvzf7UMU7Doh-21" value="" style="endArrow=classic;html=1;rounded=0;endFill=1;entryX=0;entryY=0.5;entryDx=0;entryDy=0;" edge="1" parent="1" target="Y7EmNJ8xQKFl7zkMKFGG-2">
          <mxGeometry width="50" height="50" relative="1" as="geometry">
            <mxPoint x="-1160" y="375" as="sourcePoint" />
            <mxPoint x="-980" y="374.89" as="targetPoint" />
          </mxGeometry>
        </mxCell>
        <mxCell id="lDFdH67llvzf7UMU7Doh-22" value="" style="endArrow=none;html=1;rounded=0;endFill=0;exitX=0.5;exitY=0;exitDx=0;exitDy=0;" edge="1" parent="1" source="lDFdH67llvzf7UMU7Doh-15">
          <mxGeometry width="50" height="50" relative="1" as="geometry">
            <mxPoint x="-1076" y="460" as="sourcePoint" />
            <mxPoint x="-1076" y="375" as="targetPoint" />
          </mxGeometry>
        </mxCell>
        <mxCell id="lDFdH67llvzf7UMU7Doh-23" value="" style="rounded=0;whiteSpace=wrap;html=1;dashed=1;dashPattern=1 1;fillColor=none;fontStyle=1" vertex="1" parent="1">
          <mxGeometry x="-1200" y="340" width="890" height="310" as="geometry" />
        </mxCell>
      </root>
    </mxGraphModel>
  </diagram>
</mxfile>
